<?xml version="1.0" encoding="iso-8859-1"?>
<!-- Generator: Adobe Illustrator 19.0.0, SVG Export Plug-In . SVG Version: 6.00 Build 0)  -->
<svg version="1.1" id="Capa_1" xmlns="http://www.w3.org/2000/svg" xmlns:xlink="http://www.w3.org/1999/xlink" x="0px" y="0px"
	 viewBox="0 0 496 496" style="enable-background:new 0 0 496 496;" xml:space="preserve">
<g>
	<g>
		<path d="M384.12,433.872c-6.088-20.272-22.8-35.216-43.624-39.008L288,385.328v-4.152c9.304-5.4,17.4-12.624,23.848-21.176H328
			c13.232,0,24-10.768,24-24V216.984c0-22.328-14.624-41.8-35.832-48.136l-4-4C293.56,146.248,268.832,136,242.504,136
			C188.184,136,144,180.192,144,234.504V296c0,15.424,10.968,28.328,25.512,31.336c4.488,22.992,18.856,42.448,38.488,53.84v4.152
			l-52.496,9.544c-20.832,3.792-37.536,18.736-43.624,39.008L93.248,496h309.504L384.12,433.872z M336,336c0,4.408-3.584,8-8,8
			h-6.728c2.32-5.288,4.08-10.864,5.216-16.664c3.424-0.712,6.576-2.072,9.512-3.784V336z M328,309.776v-27.552
			c4.76,2.776,8,7.88,8,13.776S332.76,307,328,309.776z M168,309.768c-4.76-2.768-8-7.872-8-13.768s3.24-11,8-13.776V309.768z
			 M168,256v9.136c-2.848,0.744-5.52,1.864-8,3.312v-33.944C160,189.008,197.016,152,242.504,152
			c22.048,0,42.768,8.584,58.344,24.168l7.056,7.056l2.16,0.536C325.336,187.584,336,201.24,336,216.984v51.464
			c-2.48-1.448-5.152-2.576-8-3.312V256h-25.376c-21.68,0-42.392-10.352-55.4-27.688l-6.352-8.496l-15.904,15.904
			C211.888,248.8,194.496,256,176,256H168z M184,312v-40.368c19.752-1.832,38.088-10.4,52.28-24.608l3.112-3.112
			c16.056,17.704,39.16,28.08,63.232,28.08H312v40c0,11.664-3.184,22.576-8.656,32H248v16h42.192c-11.28,9.928-26.024,16-42.192,16
			C212.712,376,184,347.288,184,312z M224.68,388.512C232.064,390.768,239.888,392,248,392s15.936-1.232,23.32-3.488L248,406
			L224.68,388.512z M235.824,416.864l-16.32,16.328l-10.6-31.768l5.096-0.928L235.824,416.864z M282,400.496l5.096,0.928
			l-10.6,31.768l-16.32-16.328L282,400.496z M114.752,480l12.464-41.528c4.344-14.48,16.28-25.16,31.16-27.864l34.64-6.296
			l19.496,58.496L248,427.312l35.504,35.496L303,404.312l34.64,6.296c14.872,2.704,26.816,13.384,31.16,27.856L381.248,480H114.752z
			"/>
	</g>
</g>
<g>
	<g>
		<path d="M168,0H24C10.768,0,0,10.768,0,24v96c0,13.232,10.768,24,24,24h37.336l77.312,57.992L130.368,144H168
			c13.232,0,24-10.768,24-24V24C192,10.768,181.232,0,168,0z M176,120c0,4.408-3.584,8-8,8h-56.088l5.44,38.008L66.664,128H24
			c-4.416,0-8-3.592-8-8V24c0-4.408,3.584-8,8-8h144c4.416,0,8,3.592,8,8V120z"/>
	</g>
</g>
<g>
	<g>
		<rect x="32" y="32" width="128" height="16"/>
	</g>
</g>
<g>
	<g>
		<rect x="32" y="96" width="96" height="16"/>
	</g>
</g>
<g>
	<g>
		<path d="M472,125.624c15.296-13.68,24-33.008,24-53.624c0-39.696-32.296-72-72-72c-39.704,0-72,32.304-72,72
			c0,20.616,8.704,39.944,24,53.624V136h-16v16h16v32h96v-32h16v-16h-16V125.624z M456,168h-64v-16h64V168z M416,72
			c0-4.408,3.584-8,8-8c4.416,0,8,3.592,8,8s-3.584,8-8,8C419.584,80,416,76.408,416,72z M458.992,115.68l-2.992,2.4V136h-24V94.528
			c9.288-3.312,16-12.112,16-22.528c0-13.232-10.768-24-24-24s-24,10.768-24,24c0,10.416,6.712,19.216,16,22.528V136h-24v-17.92
			l-2.992-2.4C375.656,104.968,368,89.04,368,72c0-30.88,25.128-56,56-56s56,25.12,56,56C480,89.04,472.344,104.968,458.992,115.68z
			"/>
	</g>
</g>
<g>
	<g>
		<rect x="32" y="64" width="128" height="16"/>
	</g>
</g>
<g>
	<g>
		<rect x="144" y="96" width="16" height="16"/>
	</g>
</g>
<g>
</g>
<g>
</g>
<g>
</g>
<g>
</g>
<g>
</g>
<g>
</g>
<g>
</g>
<g>
</g>
<g>
</g>
<g>
</g>
<g>
</g>
<g>
</g>
<g>
</g>
<g>
</g>
<g>
</g>
</svg>
